%TF.GenerationSoftware,KiCad,Pcbnew,7.0.9*%
%TF.CreationDate,2023-11-24T14:08:54+01:00*%
%TF.ProjectId,sd-card-shield,73642d63-6172-4642-9d73-6869656c642e,rev?*%
%TF.SameCoordinates,Original*%
%TF.FileFunction,Copper,L1,Top*%
%TF.FilePolarity,Positive*%
%FSLAX46Y46*%
G04 Gerber Fmt 4.6, Leading zero omitted, Abs format (unit mm)*
G04 Created by KiCad (PCBNEW 7.0.9) date 2023-11-24 14:08:54*
%MOMM*%
%LPD*%
G01*
G04 APERTURE LIST*
G04 Aperture macros list*
%AMRoundRect*
0 Rectangle with rounded corners*
0 $1 Rounding radius*
0 $2 $3 $4 $5 $6 $7 $8 $9 X,Y pos of 4 corners*
0 Add a 4 corners polygon primitive as box body*
4,1,4,$2,$3,$4,$5,$6,$7,$8,$9,$2,$3,0*
0 Add four circle primitives for the rounded corners*
1,1,$1+$1,$2,$3*
1,1,$1+$1,$4,$5*
1,1,$1+$1,$6,$7*
1,1,$1+$1,$8,$9*
0 Add four rect primitives between the rounded corners*
20,1,$1+$1,$2,$3,$4,$5,0*
20,1,$1+$1,$4,$5,$6,$7,0*
20,1,$1+$1,$6,$7,$8,$9,0*
20,1,$1+$1,$8,$9,$2,$3,0*%
G04 Aperture macros list end*
%TA.AperFunction,ComponentPad*%
%ADD10R,1.700000X1.700000*%
%TD*%
%TA.AperFunction,ComponentPad*%
%ADD11O,1.700000X1.700000*%
%TD*%
%TA.AperFunction,SMDPad,CuDef*%
%ADD12RoundRect,0.150000X0.150000X-0.850000X0.150000X0.850000X-0.150000X0.850000X-0.150000X-0.850000X0*%
%TD*%
%TA.AperFunction,SMDPad,CuDef*%
%ADD13RoundRect,0.200000X0.200000X0.275000X-0.200000X0.275000X-0.200000X-0.275000X0.200000X-0.275000X0*%
%TD*%
%TA.AperFunction,SMDPad,CuDef*%
%ADD14R,3.600000X4.500000*%
%TD*%
%TA.AperFunction,SMDPad,CuDef*%
%ADD15RoundRect,0.150000X0.150000X-0.825000X0.150000X0.825000X-0.150000X0.825000X-0.150000X-0.825000X0*%
%TD*%
%TA.AperFunction,SMDPad,CuDef*%
%ADD16R,1.600000X1.400000*%
%TD*%
%TA.AperFunction,SMDPad,CuDef*%
%ADD17R,1.600000X0.700000*%
%TD*%
%TA.AperFunction,SMDPad,CuDef*%
%ADD18R,1.800000X1.200000*%
%TD*%
%TA.AperFunction,SMDPad,CuDef*%
%ADD19R,2.200000X1.200000*%
%TD*%
%TA.AperFunction,SMDPad,CuDef*%
%ADD20R,1.500000X1.600000*%
%TD*%
%TA.AperFunction,SMDPad,CuDef*%
%ADD21RoundRect,0.218750X0.218750X0.256250X-0.218750X0.256250X-0.218750X-0.256250X0.218750X-0.256250X0*%
%TD*%
%TA.AperFunction,SMDPad,CuDef*%
%ADD22R,2.200000X1.100000*%
%TD*%
%TA.AperFunction,SMDPad,CuDef*%
%ADD23RoundRect,0.200000X-0.200000X-0.275000X0.200000X-0.275000X0.200000X0.275000X-0.200000X0.275000X0*%
%TD*%
%TA.AperFunction,SMDPad,CuDef*%
%ADD24RoundRect,0.225000X-0.225000X-0.250000X0.225000X-0.250000X0.225000X0.250000X-0.225000X0.250000X0*%
%TD*%
%TA.AperFunction,ComponentPad*%
%ADD25RoundRect,0.250000X0.600000X0.600000X-0.600000X0.600000X-0.600000X-0.600000X0.600000X-0.600000X0*%
%TD*%
%TA.AperFunction,ComponentPad*%
%ADD26C,1.700000*%
%TD*%
%TA.AperFunction,SMDPad,CuDef*%
%ADD27RoundRect,0.225000X0.225000X0.250000X-0.225000X0.250000X-0.225000X-0.250000X0.225000X-0.250000X0*%
%TD*%
%TA.AperFunction,ViaPad*%
%ADD28C,0.600000*%
%TD*%
%TA.AperFunction,Conductor*%
%ADD29C,0.600000*%
%TD*%
%TA.AperFunction,Conductor*%
%ADD30C,0.400000*%
%TD*%
%TA.AperFunction,Conductor*%
%ADD31C,0.200000*%
%TD*%
%TA.AperFunction,Conductor*%
%ADD32C,0.250000*%
%TD*%
G04 APERTURE END LIST*
D10*
%TO.P,P1,1,Pin_1*%
%TO.N,GND*%
X193980000Y-92380000D03*
D11*
%TO.P,P1,2,Pin_2*%
X196520000Y-92380000D03*
%TO.P,P1,3,Pin_3*%
%TO.N,Net-(P1-Pin_3)*%
X193980000Y-89840000D03*
%TO.P,P1,4,Pin_4*%
%TO.N,Net-(P1-Pin_4)*%
X196520000Y-89840000D03*
%TO.P,P1,5,Pin_5*%
%TO.N,Net-(J2-DAT0)*%
X193980000Y-87300000D03*
%TO.P,P1,6,Pin_6*%
%TO.N,Net-(P1-Pin_6)*%
X196520000Y-87300000D03*
%TO.P,P1,7,Pin_7*%
%TO.N,Net-(J3-Pin_4)*%
X193980000Y-84760000D03*
%TO.P,P1,8,Pin_8*%
%TO.N,Net-(J3-Pin_17)*%
X196520000Y-84760000D03*
%TO.P,P1,9,Pin_9*%
%TO.N,Net-(J3-Pin_8)*%
X193980000Y-82220000D03*
%TO.P,P1,10,Pin_10*%
%TO.N,Net-(J3-Pin_2)*%
X196520000Y-82220000D03*
%TO.P,P1,11,Pin_11*%
%TO.N,Net-(J3-Pin_12)*%
X193980000Y-79680000D03*
%TO.P,P1,12,Pin_12*%
%TO.N,Net-(J3-Pin_10)*%
X196520000Y-79680000D03*
%TO.P,P1,13,Pin_13*%
%TO.N,OPTION_1*%
X193980000Y-77140000D03*
%TO.P,P1,14,Pin_14*%
%TO.N,Net-(J3-Pin_18)*%
X196520000Y-77140000D03*
%TO.P,P1,15,Pin_15*%
%TO.N,OPTION_3*%
X193980000Y-74600000D03*
%TO.P,P1,16,Pin_16*%
%TO.N,OPTION_2*%
X196520000Y-74600000D03*
%TO.P,P1,17,Pin_17*%
%TO.N,GND*%
X193980000Y-72060000D03*
%TO.P,P1,18,Pin_18*%
%TO.N,OPTION_4*%
X196520000Y-72060000D03*
%TO.P,P1,19,Pin_19*%
%TO.N,DATA_1*%
X193980000Y-69520000D03*
%TO.P,P1,20,Pin_20*%
%TO.N,DATA_0*%
X196520000Y-69520000D03*
%TO.P,P1,21,Pin_21*%
%TO.N,DATA_3*%
X193980000Y-66980000D03*
%TO.P,P1,22,Pin_22*%
%TO.N,DATA_2*%
X196520000Y-66980000D03*
%TO.P,P1,23,Pin_23*%
%TO.N,DATA_5*%
X193980000Y-64440000D03*
%TO.P,P1,24,Pin_24*%
%TO.N,DATA_4*%
X196520000Y-64440000D03*
%TO.P,P1,25,Pin_25*%
%TO.N,DATA_7*%
X193980000Y-61900000D03*
%TO.P,P1,26,Pin_26*%
%TO.N,DATA_6*%
X196520000Y-61900000D03*
%TO.P,P1,27,Pin_27*%
%TO.N,unconnected-(P1-Pin_27-Pad27)*%
X193980000Y-59360000D03*
%TO.P,P1,28,Pin_28*%
%TO.N,unconnected-(P1-Pin_28-Pad28)*%
X196520000Y-59360000D03*
%TO.P,P1,29,Pin_29*%
%TO.N,unconnected-(P1-Pin_29-Pad29)*%
X193980000Y-56820000D03*
%TO.P,P1,30,Pin_30*%
%TO.N,unconnected-(P1-Pin_30-Pad30)*%
X196520000Y-56820000D03*
%TO.P,P1,31,Pin_31*%
%TO.N,Net-(P1-Pin_31)*%
X193980000Y-54280000D03*
%TO.P,P1,32,Pin_32*%
%TO.N,unconnected-(P1-Pin_32-Pad32)*%
X196520000Y-54280000D03*
%TO.P,P1,33,Pin_33*%
%TO.N,Net-(P1-Pin_33)*%
X193980000Y-51740000D03*
%TO.P,P1,34,Pin_34*%
%TO.N,Net-(P1-Pin_34)*%
X196520000Y-51740000D03*
%TO.P,P1,35,Pin_35*%
%TO.N,unconnected-(P1-Pin_35-Pad35)*%
X193980000Y-49200000D03*
%TO.P,P1,36,Pin_36*%
%TO.N,unconnected-(P1-Pin_36-Pad36)*%
X196520000Y-49200000D03*
%TD*%
D10*
%TO.P,P2,1,Pin_1*%
%TO.N,unconnected-(P2-Pin_1-Pad1)*%
X127940000Y-97460000D03*
D11*
%TO.P,P2,2,Pin_2*%
%TO.N,unconnected-(P2-Pin_2-Pad2)*%
X130480000Y-97460000D03*
%TO.P,P2,3,Pin_3*%
%TO.N,Net-(P2-Pin_3)*%
X133020000Y-97460000D03*
%TO.P,P2,4,Pin_4*%
%TO.N,+3V3*%
X135560000Y-97460000D03*
%TO.P,P2,5,Pin_5*%
%TO.N,+5V*%
X138100000Y-97460000D03*
%TO.P,P2,6,Pin_6*%
%TO.N,GND*%
X140640000Y-97460000D03*
%TO.P,P2,7,Pin_7*%
X143180000Y-97460000D03*
%TO.P,P2,8,Pin_8*%
%TO.N,+8V*%
X145720000Y-97460000D03*
%TD*%
D10*
%TO.P,P3,1,Pin_1*%
%TO.N,unconnected-(P3-Pin_1-Pad1)*%
X150800000Y-97460000D03*
D11*
%TO.P,P3,2,Pin_2*%
%TO.N,unconnected-(P3-Pin_2-Pad2)*%
X153340000Y-97460000D03*
%TO.P,P3,3,Pin_3*%
%TO.N,unconnected-(P3-Pin_3-Pad3)*%
X155880000Y-97460000D03*
%TO.P,P3,4,Pin_4*%
%TO.N,unconnected-(P3-Pin_4-Pad4)*%
X158420000Y-97460000D03*
%TO.P,P3,5,Pin_5*%
%TO.N,unconnected-(P3-Pin_5-Pad5)*%
X160960000Y-97460000D03*
%TO.P,P3,6,Pin_6*%
%TO.N,unconnected-(P3-Pin_6-Pad6)*%
X163500000Y-97460000D03*
%TO.P,P3,7,Pin_7*%
%TO.N,unconnected-(P3-Pin_7-Pad7)*%
X166040000Y-97460000D03*
%TO.P,P3,8,Pin_8*%
%TO.N,unconnected-(P3-Pin_8-Pad8)*%
X168580000Y-97460000D03*
%TD*%
D10*
%TO.P,P4,1,Pin_1*%
%TO.N,unconnected-(P4-Pin_1-Pad1)*%
X173660000Y-97460000D03*
D11*
%TO.P,P4,2,Pin_2*%
%TO.N,unconnected-(P4-Pin_2-Pad2)*%
X176200000Y-97460000D03*
%TO.P,P4,3,Pin_3*%
%TO.N,unconnected-(P4-Pin_3-Pad3)*%
X178740000Y-97460000D03*
%TO.P,P4,4,Pin_4*%
%TO.N,unconnected-(P4-Pin_4-Pad4)*%
X181280000Y-97460000D03*
%TO.P,P4,5,Pin_5*%
%TO.N,unconnected-(P4-Pin_5-Pad5)*%
X183820000Y-97460000D03*
%TO.P,P4,6,Pin_6*%
%TO.N,unconnected-(P4-Pin_6-Pad6)*%
X186360000Y-97460000D03*
%TO.P,P4,7,Pin_7*%
%TO.N,unconnected-(P4-Pin_7-Pad7)*%
X188900000Y-97460000D03*
%TO.P,P4,8,Pin_8*%
%TO.N,unconnected-(P4-Pin_8-Pad8)*%
X191440000Y-97460000D03*
%TD*%
D10*
%TO.P,P5,1,Pin_1*%
%TO.N,Net-(P5-Pin_1)*%
X118796000Y-49200000D03*
D11*
%TO.P,P5,2,Pin_2*%
%TO.N,Net-(P5-Pin_2)*%
X121336000Y-49200000D03*
%TO.P,P5,3,Pin_3*%
%TO.N,unconnected-(P5-Pin_3-Pad3)*%
X123876000Y-49200000D03*
%TO.P,P5,4,Pin_4*%
%TO.N,GND*%
X126416000Y-49200000D03*
%TO.P,P5,5,Pin_5*%
%TO.N,unconnected-(P5-Pin_5-Pad5)*%
X128956000Y-49200000D03*
%TO.P,P5,6,Pin_6*%
%TO.N,unconnected-(P5-Pin_6-Pad6)*%
X131496000Y-49200000D03*
%TO.P,P5,7,Pin_7*%
%TO.N,unconnected-(P5-Pin_7-Pad7)*%
X134036000Y-49200000D03*
%TO.P,P5,8,Pin_8*%
%TO.N,unconnected-(P5-Pin_8-Pad8)*%
X136576000Y-49200000D03*
%TO.P,P5,9,Pin_9*%
%TO.N,unconnected-(P5-Pin_9-Pad9)*%
X139116000Y-49200000D03*
%TO.P,P5,10,Pin_10*%
%TO.N,unconnected-(P5-Pin_10-Pad10)*%
X141656000Y-49200000D03*
%TD*%
D10*
%TO.P,P6,1,Pin_1*%
%TO.N,unconnected-(P6-Pin_1-Pad1)*%
X145720000Y-49200000D03*
D11*
%TO.P,P6,2,Pin_2*%
%TO.N,unconnected-(P6-Pin_2-Pad2)*%
X148260000Y-49200000D03*
%TO.P,P6,3,Pin_3*%
%TO.N,unconnected-(P6-Pin_3-Pad3)*%
X150800000Y-49200000D03*
%TO.P,P6,4,Pin_4*%
%TO.N,unconnected-(P6-Pin_4-Pad4)*%
X153340000Y-49200000D03*
%TO.P,P6,5,Pin_5*%
%TO.N,unconnected-(P6-Pin_5-Pad5)*%
X155880000Y-49200000D03*
%TO.P,P6,6,Pin_6*%
%TO.N,unconnected-(P6-Pin_6-Pad6)*%
X158420000Y-49200000D03*
%TO.P,P6,7,Pin_7*%
%TO.N,unconnected-(P6-Pin_7-Pad7)*%
X160960000Y-49200000D03*
%TO.P,P6,8,Pin_8*%
%TO.N,unconnected-(P6-Pin_8-Pad8)*%
X163500000Y-49200000D03*
%TD*%
D10*
%TO.P,P7,1,Pin_1*%
%TO.N,unconnected-(P7-Pin_1-Pad1)*%
X168580000Y-49200000D03*
D11*
%TO.P,P7,2,Pin_2*%
%TO.N,unconnected-(P7-Pin_2-Pad2)*%
X171120000Y-49200000D03*
%TO.P,P7,3,Pin_3*%
%TO.N,unconnected-(P7-Pin_3-Pad3)*%
X173660000Y-49200000D03*
%TO.P,P7,4,Pin_4*%
%TO.N,unconnected-(P7-Pin_4-Pad4)*%
X176200000Y-49200000D03*
%TO.P,P7,5,Pin_5*%
%TO.N,unconnected-(P7-Pin_5-Pad5)*%
X178740000Y-49200000D03*
%TO.P,P7,6,Pin_6*%
%TO.N,Net-(J2-DET)*%
X181280000Y-49200000D03*
%TO.P,P7,7,Pin_7*%
%TO.N,Net-(J1-Pin_2)*%
X183820000Y-49200000D03*
%TO.P,P7,8,Pin_8*%
%TO.N,Net-(J1-Pin_1)*%
X186360000Y-49200000D03*
%TD*%
D12*
%TO.P,U2,1,VCC*%
%TO.N,+3V3*%
X147445000Y-82060000D03*
%TO.P,U2,2*%
%TO.N,Net-(J2-DAT3{slash}CD)*%
X148715000Y-82060000D03*
%TO.P,U2,3*%
%TO.N,Net-(P1-Pin_4)*%
X149985000Y-82060000D03*
%TO.P,U2,4*%
%TO.N,Net-(J2-CMD)*%
X151255000Y-82060000D03*
%TO.P,U2,5*%
%TO.N,Net-(P1-Pin_6)*%
X152525000Y-82060000D03*
%TO.P,U2,6*%
%TO.N,Net-(J2-CLK)*%
X153795000Y-82060000D03*
%TO.P,U2,7*%
%TO.N,Net-(P1-Pin_3)*%
X155065000Y-82060000D03*
%TO.P,U2,8,VSS*%
%TO.N,GND*%
X156335000Y-82060000D03*
%TO.P,U2,9*%
X156335000Y-77060000D03*
%TO.P,U2,10*%
%TO.N,Net-(U2-Pad10)*%
X155065000Y-77060000D03*
%TO.P,U2,11*%
X153795000Y-77060000D03*
%TO.P,U2,12*%
%TO.N,Net-(U2-Pad12)*%
X152525000Y-77060000D03*
%TO.P,U2,13*%
%TO.N,N/C*%
X151255000Y-77060000D03*
%TO.P,U2,14*%
%TO.N,Net-(U2-Pad12)*%
X149985000Y-77060000D03*
%TO.P,U2,15*%
%TO.N,unconnected-(U2-Pad15)*%
X148715000Y-77060000D03*
%TO.P,U2,16*%
%TO.N,N/C*%
X147445000Y-77060000D03*
%TD*%
D13*
%TO.P,R1,1*%
%TO.N,Net-(LED1-K)*%
X211825000Y-53100000D03*
%TO.P,R1,2*%
%TO.N,Net-(P1-Pin_33)*%
X210175000Y-53100000D03*
%TD*%
D14*
%TO.P,BT1,1,+*%
%TO.N,Net-(BT1-+)*%
X121700000Y-61800000D03*
%TO.P,BT1,2,-*%
%TO.N,GND*%
X150800000Y-61800000D03*
%TD*%
D15*
%TO.P,U1,1,32KHZ*%
%TO.N,unconnected-(U1-32KHZ-Pad1)*%
X109185000Y-62925000D03*
%TO.P,U1,2,VCC*%
%TO.N,+3V3*%
X110455000Y-62925000D03*
%TO.P,U1,3,~{INT}/SQW*%
%TO.N,unconnected-(U1-~{INT}{slash}SQW-Pad3)*%
X111725000Y-62925000D03*
%TO.P,U1,4,~{RST}*%
%TO.N,unconnected-(U1-~{RST}-Pad4)*%
X112995000Y-62925000D03*
%TO.P,U1,5,GND*%
%TO.N,GND*%
X112995000Y-57975000D03*
%TO.P,U1,6,VBAT*%
%TO.N,Net-(BT1-+)*%
X111725000Y-57975000D03*
%TO.P,U1,7,SDA*%
%TO.N,Net-(P5-Pin_2)*%
X110455000Y-57975000D03*
%TO.P,U1,8,SCL*%
%TO.N,Net-(P5-Pin_1)*%
X109185000Y-57975000D03*
%TD*%
D16*
%TO.P,SW2,1,1*%
%TO.N,GND*%
X113900000Y-90650000D03*
X121100000Y-90650000D03*
%TO.P,SW2,2,2*%
%TO.N,Net-(P2-Pin_3)*%
X113900000Y-93650000D03*
X121100000Y-93650000D03*
%TD*%
D17*
%TO.P,J2,1,DAT2*%
%TO.N,unconnected-(J2-DAT2-Pad1)*%
X114975000Y-79725000D03*
%TO.P,J2,2,DAT3/CD*%
%TO.N,Net-(J2-DAT3{slash}CD)*%
X114975000Y-78625000D03*
%TO.P,J2,3,CMD*%
%TO.N,Net-(J2-CMD)*%
X114975000Y-77525000D03*
%TO.P,J2,4,VDD*%
%TO.N,+3V3*%
X114975000Y-76425000D03*
%TO.P,J2,5,CLK*%
%TO.N,Net-(J2-CLK)*%
X114975000Y-75325000D03*
%TO.P,J2,6,VSS*%
%TO.N,GND*%
X114975000Y-74225000D03*
%TO.P,J2,7,DAT0*%
%TO.N,Net-(J2-DAT0)*%
X114975000Y-73125000D03*
%TO.P,J2,8,DAT1*%
%TO.N,unconnected-(J2-DAT1-Pad8)*%
X114975000Y-72025000D03*
%TO.P,J2,9,DET*%
%TO.N,Net-(J2-DET)*%
X114975000Y-70925000D03*
D18*
%TO.P,J2,10,SHIELD*%
%TO.N,GND*%
X113675000Y-69725000D03*
D19*
X104375000Y-69725000D03*
D20*
X113925000Y-84325000D03*
D19*
X104375000Y-85225000D03*
%TD*%
D21*
%TO.P,LED2,1,K*%
%TO.N,Net-(LED2-K)*%
X206787500Y-48800000D03*
%TO.P,LED2,2,A*%
%TO.N,+3V3*%
X205212500Y-48800000D03*
%TD*%
D22*
%TO.P,SW1,1*%
%TO.N,OPTION_1*%
X184300000Y-77140000D03*
%TO.P,SW1,2*%
%TO.N,OPTION_2*%
X184300000Y-74600000D03*
%TO.P,SW1,3*%
%TO.N,OPTION_3*%
X184300000Y-72060000D03*
%TO.P,SW1,4*%
%TO.N,OPTION_4*%
X184300000Y-69520000D03*
%TO.P,SW1,5*%
%TO.N,GND*%
X175500000Y-69520000D03*
%TO.P,SW1,6*%
X175500000Y-72060000D03*
%TO.P,SW1,7*%
X175500000Y-74600000D03*
%TO.P,SW1,8*%
X175500000Y-77140000D03*
%TD*%
D23*
%TO.P,R4,1*%
%TO.N,+3V3*%
X181275000Y-84760000D03*
%TO.P,R4,2*%
%TO.N,Net-(J3-Pin_4)*%
X182925000Y-84760000D03*
%TD*%
D10*
%TO.P,J1,1,Pin_1*%
%TO.N,Net-(J1-Pin_1)*%
X186360000Y-55050000D03*
D11*
%TO.P,J1,2,Pin_2*%
%TO.N,Net-(J1-Pin_2)*%
X183820000Y-55050000D03*
%TO.P,J1,3,Pin_3*%
%TO.N,+3V3*%
X181280000Y-55050000D03*
%TO.P,J1,4,Pin_4*%
%TO.N,GND*%
X178740000Y-55050000D03*
%TD*%
D24*
%TO.P,C3,1*%
%TO.N,+3V3*%
X110450000Y-64950000D03*
%TO.P,C3,2*%
%TO.N,GND*%
X112000000Y-64950000D03*
%TD*%
D25*
%TO.P,J3,1,Pin_1*%
%TO.N,DATA_0*%
X209000000Y-92380000D03*
D26*
%TO.P,J3,2,Pin_2*%
%TO.N,Net-(J3-Pin_2)*%
X206460000Y-92380000D03*
%TO.P,J3,3,Pin_3*%
%TO.N,DATA_1*%
X209000000Y-89840000D03*
%TO.P,J3,4,Pin_4*%
%TO.N,Net-(J3-Pin_4)*%
X206460000Y-89840000D03*
%TO.P,J3,5,Pin_5*%
%TO.N,DATA_2*%
X209000000Y-87300000D03*
%TO.P,J3,6,Pin_6*%
%TO.N,Net-(J3-Pin_17)*%
X206460000Y-87300000D03*
%TO.P,J3,7,Pin_7*%
%TO.N,DATA_3*%
X209000000Y-84760000D03*
%TO.P,J3,8,Pin_8*%
%TO.N,Net-(J3-Pin_8)*%
X206460000Y-84760000D03*
%TO.P,J3,9,Pin_9*%
%TO.N,DATA_4*%
X209000000Y-82220000D03*
%TO.P,J3,10,Pin_10*%
%TO.N,Net-(J3-Pin_10)*%
X206460000Y-82220000D03*
%TO.P,J3,11,Pin_11*%
%TO.N,DATA_5*%
X209000000Y-79680000D03*
%TO.P,J3,12,Pin_12*%
%TO.N,Net-(J3-Pin_12)*%
X206460000Y-79680000D03*
%TO.P,J3,13,Pin_13*%
%TO.N,DATA_6*%
X209000000Y-77140000D03*
%TO.P,J3,14,Pin_14*%
%TO.N,unconnected-(J3-Pin_14-Pad14)*%
X206460000Y-77140000D03*
%TO.P,J3,15,Pin_15*%
%TO.N,DATA_7*%
X209000000Y-74600000D03*
%TO.P,J3,16,Pin_16*%
%TO.N,unconnected-(J3-Pin_16-Pad16)*%
X206460000Y-74600000D03*
%TO.P,J3,17,Pin_17*%
%TO.N,Net-(J3-Pin_17)*%
X209000000Y-72060000D03*
%TO.P,J3,18,Pin_18*%
%TO.N,Net-(J3-Pin_18)*%
X206460000Y-72060000D03*
%TO.P,J3,19,Pin_19*%
%TO.N,unconnected-(J3-Pin_19-Pad19)*%
X209000000Y-69520000D03*
%TO.P,J3,20,Pin_20*%
%TO.N,unconnected-(J3-Pin_20-Pad20)*%
X206460000Y-69520000D03*
%TO.P,J3,21,Pin_21*%
%TO.N,unconnected-(J3-Pin_21-Pad21)*%
X209000000Y-66980000D03*
%TO.P,J3,22,Pin_22*%
%TO.N,unconnected-(J3-Pin_22-Pad22)*%
X206460000Y-66980000D03*
%TO.P,J3,23,Pin_23*%
%TO.N,+8V*%
X209000000Y-64440000D03*
%TO.P,J3,24,Pin_24*%
X206460000Y-64440000D03*
%TO.P,J3,25,Pin_25*%
%TO.N,GND*%
X209000000Y-61900000D03*
%TO.P,J3,26,Pin_26*%
X206460000Y-61900000D03*
%TD*%
D13*
%TO.P,R2,1*%
%TO.N,Net-(LED2-K)*%
X206825000Y-53100000D03*
%TO.P,R2,2*%
%TO.N,Net-(P1-Pin_34)*%
X205175000Y-53100000D03*
%TD*%
D21*
%TO.P,LED1,1,K*%
%TO.N,Net-(LED1-K)*%
X211787500Y-48800000D03*
%TO.P,LED1,2,A*%
%TO.N,+3V3*%
X210212500Y-48800000D03*
%TD*%
D13*
%TO.P,R7,1*%
%TO.N,+3V3*%
X182535000Y-52200000D03*
%TO.P,R7,2*%
%TO.N,Net-(J2-DET)*%
X180885000Y-52200000D03*
%TD*%
%TO.P,R3,1*%
%TO.N,Net-(LED3-K)*%
X201825000Y-53100000D03*
%TO.P,R3,2*%
%TO.N,Net-(P1-Pin_31)*%
X200175000Y-53100000D03*
%TD*%
D27*
%TO.P,C2,1*%
%TO.N,Net-(P2-Pin_3)*%
X133015000Y-94740000D03*
%TO.P,C2,2*%
%TO.N,GND*%
X131465000Y-94740000D03*
%TD*%
D21*
%TO.P,LED3,1,K*%
%TO.N,Net-(LED3-K)*%
X201787500Y-48800000D03*
%TO.P,LED3,2,A*%
%TO.N,+3V3*%
X200212500Y-48800000D03*
%TD*%
D24*
%TO.P,C4,1*%
%TO.N,+3V3*%
X147445000Y-84090000D03*
%TO.P,C4,2*%
%TO.N,GND*%
X148995000Y-84090000D03*
%TD*%
D27*
%TO.P,C1,1*%
%TO.N,+8V*%
X145735000Y-94750000D03*
%TO.P,C1,2*%
%TO.N,GND*%
X144185000Y-94750000D03*
%TD*%
D28*
%TO.N,GND*%
X173950000Y-72060000D03*
X119900000Y-90650000D03*
X113930000Y-85570000D03*
X105940000Y-69730000D03*
X150800000Y-59100000D03*
X143300000Y-94750000D03*
X105930000Y-85230000D03*
X156340000Y-78500000D03*
X173950000Y-69520000D03*
X112800000Y-64950000D03*
X156340000Y-80600000D03*
X113000000Y-56570000D03*
X115100000Y-90650000D03*
X173950000Y-74600000D03*
X149000000Y-85000000D03*
X173950000Y-77140000D03*
X113720000Y-74230000D03*
X130630000Y-94740000D03*
X115030000Y-69730000D03*
X150800000Y-64500000D03*
%TD*%
D29*
%TO.N,GND*%
X156340000Y-80600000D02*
X156340000Y-82055000D01*
X149000000Y-85000000D02*
X149000000Y-84095000D01*
D30*
X150800000Y-59100000D02*
X150800000Y-61800000D01*
D29*
X115030000Y-69730000D02*
X113680000Y-69730000D01*
D30*
X175500000Y-74600000D02*
X173950000Y-74600000D01*
D29*
X105930000Y-85230000D02*
X104380000Y-85230000D01*
X104380000Y-69730000D02*
X104375000Y-69725000D01*
X105940000Y-69730000D02*
X104380000Y-69730000D01*
X156340000Y-77065000D02*
X156335000Y-77060000D01*
X149000000Y-84095000D02*
X148995000Y-84090000D01*
X113720000Y-74230000D02*
X114970000Y-74230000D01*
D30*
X130630000Y-94740000D02*
X131465000Y-94740000D01*
D29*
X114970000Y-74230000D02*
X114975000Y-74225000D01*
D30*
X175500000Y-69520000D02*
X173950000Y-69520000D01*
D29*
X113680000Y-69730000D02*
X113675000Y-69725000D01*
X113000000Y-56570000D02*
X113000000Y-57970000D01*
X113000000Y-57970000D02*
X112995000Y-57975000D01*
X104380000Y-85230000D02*
X104375000Y-85225000D01*
X156340000Y-82055000D02*
X156335000Y-82060000D01*
X119900000Y-90650000D02*
X121100000Y-90650000D01*
D30*
X144185000Y-94750000D02*
X143300000Y-94750000D01*
X112800000Y-64950000D02*
X112000000Y-64950000D01*
D29*
X115100000Y-90650000D02*
X113900000Y-90650000D01*
X113930000Y-84330000D02*
X113925000Y-84325000D01*
D30*
X150800000Y-64500000D02*
X150800000Y-61800000D01*
D29*
X156340000Y-78500000D02*
X156340000Y-77065000D01*
X113930000Y-85570000D02*
X113930000Y-84330000D01*
D30*
X175500000Y-77140000D02*
X173950000Y-77140000D01*
X175500000Y-72060000D02*
X173950000Y-72060000D01*
D31*
%TO.N,Net-(P1-Pin_3)*%
X193980000Y-89840000D02*
X161300000Y-89840000D01*
X155065000Y-83605000D02*
X155065000Y-82060000D01*
X161300000Y-89840000D02*
X155065000Y-83605000D01*
%TO.N,Net-(P1-Pin_4)*%
X156400000Y-90190000D02*
X149985000Y-83775000D01*
X196520000Y-89840000D02*
X195370000Y-90990000D01*
X166613373Y-90190000D02*
X156400000Y-90190000D01*
X167413373Y-90990000D02*
X166613373Y-90190000D01*
X149985000Y-83775000D02*
X149985000Y-82060000D01*
X195370000Y-90990000D02*
X167413373Y-90990000D01*
%TO.N,Net-(J2-DAT0)*%
X176430000Y-87300000D02*
X193980000Y-87300000D01*
X162255000Y-73125000D02*
X176430000Y-87300000D01*
X114975000Y-73125000D02*
X162255000Y-73125000D01*
%TO.N,Net-(P1-Pin_6)*%
X196520000Y-87300000D02*
X195370000Y-88450000D01*
X195370000Y-88450000D02*
X165080955Y-88450000D01*
X152470000Y-80360000D02*
X152525000Y-80415000D01*
X152940000Y-79890000D02*
X152470000Y-80360000D01*
X165080955Y-88450000D02*
X156520955Y-79890000D01*
X156520955Y-79890000D02*
X152940000Y-79890000D01*
X152525000Y-80415000D02*
X152525000Y-82060000D01*
%TO.N,OPTION_1*%
X193980000Y-77140000D02*
X184300000Y-77140000D01*
%TO.N,OPTION_3*%
X187500000Y-72060000D02*
X190040000Y-74600000D01*
X190040000Y-74600000D02*
X193980000Y-74600000D01*
X184300000Y-72060000D02*
X187500000Y-72060000D01*
%TO.N,OPTION_2*%
X195370000Y-75750000D02*
X196520000Y-74600000D01*
X184300000Y-74600000D02*
X187440000Y-74600000D01*
X187440000Y-74600000D02*
X188590000Y-75750000D01*
X188590000Y-75750000D02*
X195370000Y-75750000D01*
%TO.N,OPTION_4*%
X187630000Y-69520000D02*
X191320000Y-73210000D01*
X191320000Y-73210000D02*
X195370000Y-73210000D01*
X195370000Y-73210000D02*
X196520000Y-72060000D01*
X184300000Y-69520000D02*
X187630000Y-69520000D01*
D30*
%TO.N,Net-(P1-Pin_31)*%
X195230000Y-53030000D02*
X193980000Y-54280000D01*
X200175000Y-53100000D02*
X200105000Y-53030000D01*
X200105000Y-53030000D02*
X195230000Y-53030000D01*
%TO.N,Net-(P1-Pin_33)*%
X192730000Y-54797767D02*
X192730000Y-52990000D01*
X193462233Y-55530000D02*
X192730000Y-54797767D01*
X210175000Y-53100000D02*
X207745000Y-55530000D01*
X207745000Y-55530000D02*
X193462233Y-55530000D01*
X192730000Y-52990000D02*
X193980000Y-51740000D01*
%TO.N,Net-(P1-Pin_34)*%
X200975000Y-53573528D02*
X200975000Y-52576472D01*
X201376472Y-53975000D02*
X200975000Y-53573528D01*
X204300000Y-53975000D02*
X201376472Y-53975000D01*
X205175000Y-53100000D02*
X204300000Y-53975000D01*
X200975000Y-52576472D02*
X200138528Y-51740000D01*
X200138528Y-51740000D02*
X196520000Y-51740000D01*
D32*
%TO.N,Net-(P2-Pin_3)*%
X132062500Y-93787500D02*
X133015000Y-94740000D01*
X121100000Y-93650000D02*
X131925000Y-93650000D01*
X113900000Y-93650000D02*
X121100000Y-93650000D01*
X133015000Y-94740000D02*
X133020000Y-94745000D01*
X133020000Y-94745000D02*
X133020000Y-97460000D01*
D30*
X133015000Y-97455000D02*
X133020000Y-97460000D01*
D32*
X131925000Y-93650000D02*
X132062500Y-93787500D01*
D29*
%TO.N,+8V*%
X145720000Y-97460000D02*
X145720000Y-94765000D01*
X206460000Y-64440000D02*
X209000000Y-64440000D01*
X210677000Y-66117000D02*
X209000000Y-64440000D01*
X145720000Y-94765000D02*
X145735000Y-94750000D01*
X210677000Y-92963660D02*
X210677000Y-66117000D01*
X147874000Y-95306000D02*
X208334660Y-95306000D01*
X208334660Y-95306000D02*
X210677000Y-92963660D01*
X145720000Y-97460000D02*
X147874000Y-95306000D01*
D31*
%TO.N,Net-(P5-Pin_1)*%
X109185000Y-57975000D02*
X109185000Y-57065000D01*
X115096000Y-51154000D02*
X116842000Y-51154000D01*
X116842000Y-51154000D02*
X118796000Y-49200000D01*
X109185000Y-57065000D02*
X115096000Y-51154000D01*
%TO.N,Net-(P5-Pin_2)*%
X115650000Y-51850000D02*
X110455000Y-57045000D01*
X110455000Y-57045000D02*
X110455000Y-57975000D01*
X121336000Y-49200000D02*
X118686000Y-51850000D01*
X118686000Y-51850000D02*
X115650000Y-51850000D01*
D29*
%TO.N,+3V3*%
X147298553Y-84253249D02*
X135560000Y-95991802D01*
D30*
X181280000Y-55050000D02*
X181280000Y-84755000D01*
X200204000Y-48800000D02*
X198550000Y-47146000D01*
X180993767Y-47146000D02*
X180350000Y-47146000D01*
D29*
X113712107Y-76425000D02*
X114975000Y-76425000D01*
D30*
X203175000Y-47146000D02*
X208558500Y-47146000D01*
D29*
X110450000Y-64950000D02*
X110450000Y-62930000D01*
D30*
X198550000Y-47146000D02*
X203175000Y-47146000D01*
X182530000Y-48682233D02*
X180993767Y-47146000D01*
D29*
X120692305Y-80917000D02*
X114294658Y-80917000D01*
D30*
X112150131Y-47146000D02*
X108485000Y-50811131D01*
X180350000Y-47146000D02*
X198550000Y-47146000D01*
X208558500Y-47146000D02*
X210212500Y-48800000D01*
X108485000Y-60160000D02*
X110455000Y-62130000D01*
X108485000Y-50811131D02*
X108485000Y-60160000D01*
D29*
X110450000Y-62930000D02*
X110455000Y-62925000D01*
D30*
X203558500Y-47146000D02*
X203175000Y-47146000D01*
D29*
X135560000Y-95784695D02*
X120692305Y-80917000D01*
X112890000Y-73600000D02*
X110450000Y-71160000D01*
D30*
X180350000Y-47146000D02*
X112150131Y-47146000D01*
D29*
X113575000Y-76425000D02*
X112890000Y-75740000D01*
X135560000Y-95991802D02*
X135560000Y-95784695D01*
D30*
X181280000Y-55050000D02*
X182530000Y-53800000D01*
X205212500Y-48800000D02*
X203558500Y-47146000D01*
D29*
X113086447Y-77050660D02*
X113712107Y-76425000D01*
D30*
X200212500Y-48800000D02*
X200204000Y-48800000D01*
D29*
X113086447Y-79708789D02*
X113086447Y-77050660D01*
X135560000Y-97460000D02*
X135560000Y-95991802D01*
X114975000Y-76425000D02*
X113575000Y-76425000D01*
D30*
X110455000Y-62130000D02*
X110455000Y-62925000D01*
X181280000Y-84755000D02*
X181275000Y-84760000D01*
D29*
X114294658Y-80917000D02*
X113086447Y-79708789D01*
X147445000Y-82060000D02*
X147445000Y-84090000D01*
X112890000Y-75740000D02*
X112890000Y-73600000D01*
X110450000Y-71160000D02*
X110450000Y-64950000D01*
D30*
X182530000Y-53800000D02*
X182530000Y-48682233D01*
D31*
%TO.N,Net-(J2-DET)*%
X181280000Y-51805000D02*
X181280000Y-49200000D01*
X175516626Y-52200000D02*
X174620813Y-53095813D01*
X180885000Y-52200000D02*
X175516626Y-52200000D01*
X156791627Y-70925000D02*
X174620813Y-53095813D01*
X114975000Y-70925000D02*
X156791627Y-70925000D01*
X180885000Y-52200000D02*
X181280000Y-51805000D01*
D30*
%TO.N,Net-(BT1-+)*%
X111725000Y-59175000D02*
X114350000Y-61800000D01*
X111725000Y-57975000D02*
X111725000Y-59175000D01*
X114350000Y-61800000D02*
X121700000Y-61800000D01*
D31*
%TO.N,Net-(J1-Pin_2)*%
X183820000Y-49200000D02*
X183820000Y-55050000D01*
%TO.N,Net-(J1-Pin_1)*%
X186360000Y-49200000D02*
X186360000Y-55050000D01*
%TO.N,Net-(J2-DAT3{slash}CD)*%
X148715000Y-80595000D02*
X148715000Y-82060000D01*
X114975000Y-78625000D02*
X145646396Y-78625000D01*
X148510000Y-80390000D02*
X148715000Y-80595000D01*
X145646396Y-78625000D02*
X147411396Y-80390000D01*
X147411396Y-80390000D02*
X148510000Y-80390000D01*
%TO.N,Net-(J2-CMD)*%
X150880000Y-80000000D02*
X148286156Y-80000000D01*
X151255000Y-80375000D02*
X150880000Y-80000000D01*
X148286156Y-80000000D02*
X145811156Y-77525000D01*
X151255000Y-82060000D02*
X151255000Y-80375000D01*
X145811156Y-77525000D02*
X114975000Y-77525000D01*
%TO.N,Net-(J2-CLK)*%
X152861396Y-83360000D02*
X152118604Y-83360000D01*
X147108604Y-78360000D02*
X144073604Y-75325000D01*
X152118604Y-83360000D02*
X151855000Y-83096396D01*
X153795000Y-82426396D02*
X152861396Y-83360000D01*
X144073604Y-75325000D02*
X114975000Y-75325000D01*
X153795000Y-82060000D02*
X153795000Y-82426396D01*
X149702448Y-78360000D02*
X147108604Y-78360000D01*
X151855000Y-83096396D02*
X151855000Y-80512552D01*
X151855000Y-80512552D02*
X149702448Y-78360000D01*
%TO.N,Net-(U2-Pad10)*%
X153795000Y-77060000D02*
X155065000Y-77060000D01*
%TO.N,Net-(U2-Pad12)*%
X149985000Y-76693604D02*
X150918604Y-75760000D01*
X150918604Y-75760000D02*
X151850000Y-75760000D01*
X151850000Y-75760000D02*
X152525000Y-76435000D01*
X152525000Y-76435000D02*
X152525000Y-77060000D01*
X149985000Y-77060000D02*
X149985000Y-76693604D01*
%TO.N,Net-(J3-Pin_4)*%
X182925000Y-84760000D02*
X193980000Y-84760000D01*
X202770000Y-86150000D02*
X195370000Y-86150000D01*
X206460000Y-89840000D02*
X202770000Y-86150000D01*
X195370000Y-86150000D02*
X193980000Y-84760000D01*
%TO.N,Net-(J3-Pin_17)*%
X209476346Y-88450000D02*
X210150000Y-87776346D01*
X203920000Y-84760000D02*
X196520000Y-84760000D01*
X207610000Y-88450000D02*
X209476346Y-88450000D01*
X210150000Y-73210000D02*
X209000000Y-72060000D01*
X210150000Y-87776346D02*
X210150000Y-73210000D01*
X206460000Y-87300000D02*
X207610000Y-88450000D01*
X206460000Y-87300000D02*
X203920000Y-84760000D01*
%TO.N,Net-(J3-Pin_8)*%
X205310000Y-83610000D02*
X195370000Y-83610000D01*
X195370000Y-83610000D02*
X193980000Y-82220000D01*
X206460000Y-84760000D02*
X205310000Y-83610000D01*
%TO.N,Net-(J3-Pin_10)*%
X206460000Y-82220000D02*
X199060000Y-82220000D01*
X199060000Y-82220000D02*
X196520000Y-79680000D01*
%TO.N,Net-(J3-Pin_12)*%
X206460000Y-79680000D02*
X205310000Y-78530000D01*
X205310000Y-78530000D02*
X195130000Y-78530000D01*
X195130000Y-78530000D02*
X193980000Y-79680000D01*
%TO.N,Net-(J3-Pin_18)*%
X201380000Y-77140000D02*
X196520000Y-77140000D01*
X206460000Y-72060000D02*
X201380000Y-77140000D01*
D30*
%TO.N,Net-(LED1-K)*%
X211787500Y-48800000D02*
X211787500Y-53062500D01*
X211787500Y-53062500D02*
X211825000Y-53100000D01*
%TO.N,Net-(LED2-K)*%
X206787500Y-53062500D02*
X206825000Y-53100000D01*
X206787500Y-48800000D02*
X206787500Y-53062500D01*
%TO.N,Net-(LED3-K)*%
X201787500Y-53062500D02*
X201825000Y-53100000D01*
X201787500Y-48800000D02*
X201787500Y-53062500D01*
%TD*%
M02*
