M48
; DRILL file {KiCad 7.0.9} date Fri Nov 24 14:09:08 2023
; FORMAT={-:-/ absolute / inch / decimal}
; #@! TF.CreationDate,2023-11-24T14:09:08+01:00
; #@! TF.GenerationSoftware,Kicad,Pcbnew,7.0.9
; #@! TF.FileFunction,MixedPlating,1,2
FMAT,2
INCH
; #@! TA.AperFunction,Plated,PTH,ViaDrill
T1C0.0157
; #@! TA.AperFunction,Plated,PTH,ComponentDrill
T2C0.0394
; #@! TA.AperFunction,NonPlated,NPTH,ComponentDrill
T3C0.0394
; #@! TA.AperFunction,NonPlated,NPTH,ComponentDrill
T4C0.1260
%
G90
G05
T1
X4.1705Y-3.3555
X4.1709Y-2.7453
X4.4409Y-2.5571
X4.4488Y-2.2272
X4.4772Y-2.9224
X4.4854Y-3.3689
X4.5287Y-2.7453
X4.5315Y-3.5689
X4.7205Y-3.5689
X5.1429Y-3.7299
X5.6417Y-3.7303
X5.8661Y-3.3465
X5.937Y-2.3268
X5.937Y-2.5394
X6.1551Y-3.0906
X6.1551Y-3.1732
X6.8484Y-2.737
X6.8484Y-2.837
X6.8484Y-2.937
X6.8484Y-3.037
T2
X4.677Y-1.937
X4.777Y-1.937
X4.877Y-1.937
X4.977Y-1.937
X5.037Y-3.837
X5.077Y-1.937
X5.137Y-3.837
X5.177Y-1.937
X5.237Y-3.837
X5.277Y-1.937
X5.337Y-3.837
X5.377Y-1.937
X5.437Y-3.837
X5.477Y-1.937
X5.537Y-3.837
X5.577Y-1.937
X5.637Y-3.837
X5.737Y-1.937
X5.737Y-3.837
X5.837Y-1.937
X5.937Y-1.937
X5.937Y-3.837
X6.037Y-1.937
X6.037Y-3.837
X6.137Y-1.937
X6.137Y-3.837
X6.237Y-1.937
X6.237Y-3.837
X6.337Y-1.937
X6.337Y-3.837
X6.437Y-1.937
X6.437Y-3.837
X6.537Y-3.837
X6.637Y-1.937
X6.637Y-3.837
X6.737Y-1.937
X6.837Y-1.937
X6.837Y-3.837
X6.937Y-1.937
X6.937Y-3.837
X7.037Y-1.937
X7.037Y-2.1673
X7.037Y-3.837
X7.137Y-1.937
X7.137Y-2.1673
X7.137Y-3.837
X7.237Y-1.937
X7.237Y-2.1673
X7.237Y-3.837
X7.337Y-1.937
X7.337Y-2.1673
X7.337Y-3.837
X7.437Y-3.837
X7.537Y-3.837
X7.637Y-1.937
X7.637Y-2.037
X7.637Y-2.137
X7.637Y-2.237
X7.637Y-2.337
X7.637Y-2.437
X7.637Y-2.537
X7.637Y-2.637
X7.637Y-2.737
X7.637Y-2.837
X7.637Y-2.937
X7.637Y-3.037
X7.637Y-3.137
X7.637Y-3.237
X7.637Y-3.337
X7.637Y-3.437
X7.637Y-3.537
X7.637Y-3.637
X7.737Y-1.937
X7.737Y-2.037
X7.737Y-2.137
X7.737Y-2.237
X7.737Y-2.337
X7.737Y-2.437
X7.737Y-2.537
X7.737Y-2.637
X7.737Y-2.737
X7.737Y-2.837
X7.737Y-2.937
X7.737Y-3.037
X7.737Y-3.137
X7.737Y-3.237
X7.737Y-3.337
X7.737Y-3.437
X7.737Y-3.537
X7.737Y-3.637
X8.1283Y-2.437
X8.1283Y-2.537
X8.1283Y-2.637
X8.1283Y-2.737
X8.1283Y-2.837
X8.1283Y-2.937
X8.1283Y-3.037
X8.1283Y-3.137
X8.1283Y-3.237
X8.1283Y-3.337
X8.1283Y-3.437
X8.1283Y-3.537
X8.1283Y-3.637
X8.2283Y-2.437
X8.2283Y-2.537
X8.2283Y-2.637
X8.2283Y-2.737
X8.2283Y-2.837
X8.2283Y-2.937
X8.2283Y-3.037
X8.2283Y-3.137
X8.2283Y-3.237
X8.2283Y-3.337
X8.2283Y-3.437
X8.2283Y-3.537
X8.2283Y-3.637
T3
X4.0935Y-2.8553
X4.0935Y-3.1703
T4
X4.487Y-3.837
X4.537Y-1.937
X6.537Y-2.537
X6.537Y-3.637
X7.487Y-1.937
X7.737Y-3.837
T0
M30
